<?xml version="1.0" encoding="utf-8"?>
<?xml-stylesheet type="text/xsl" href="rss1.xsl"?>
<rss version="2.0" xmlns:atom="http://www.w3.org/2005/Atom" xmlns:content="http://purl.org/rss/1.0/modules/content/" xmlns:dc="http://purl.org/dc/elements/1.1/" xmlns:media="http://search.yahoo.com/mrss/">
<channel>
 <title>Getty</title>
 <link>http://www.gettyimg.com/</link>
 <atom:link href="http://www.gettyimg.com/" rel="self" type="application/rss+xml" />

 
                <item>
                <title><![CDATA[【Albums (lossless)】WAV - WESTLIFE - WILD DREAMS (2021) [CD 16bits / 44100hz]]]></title>
                <link><![CDATA[https://sharemania.us/threads/westlife-wild-dreams-2021-cd-16bits-44100hz.238240/]]></link>
                <description><![CDATA[<article>
<blockquote class="messageText SelectQuoteContainer ugc baseHtml">
<span style="font-family: 'Book Antiqua'"><span style="font-size: 22px"><b><img src="https://www.westlife.com/wp-content/themes/westlife/assets/merch/Westlife_WD_Standard.jpg" class="bbCodeImage LbImage" alt="[​IMG]" data-url="https://www.westlife.com/wp-content/themes/westlife/assets/merch/Westlife_WD_Standard.jpg" style=""> </b><br>
<b>WESTLIFE </b>- WILD DREAMS (CD)</span></span><br>
<span style="font-family: 'Arial'"><span style="font-size: 15px"><i><b>Wild Dreams</b></i> is the twelfth studio album by Irish pop vocal band <a href="https://en.wikipedia.org/wiki/Westlife" target="_blank" class="externalLink" rel="nofollow">Westlife</a>. It was released on 26 November 2021 by <a href="https://en.wikipedia.org/wiki/East_West_Records" target="_blank" class="externalLink" rel="nofollow">East West Records</a>, their first release on the label. The album was preceded by the lead single "Starlight", released on 14 October 2021. Its second single, "My Hero", was released on 5 November 2021. <i>Wild Dreams</i> includes songwriting contributions from <a href="https://en.wikipedia.org/wiki/Ed_Sheeran" target="_blank" class="externalLink" rel="nofollow">Ed Sheeran</a> ("My Hero") and <a href="https://en.wikipedia.org/wiki/Amy_Wadge" target="_blank" class="externalLink" rel="nofollow">Amy Wadge</a> ("Lifeline", "Rewind"), along with production from <a href="https://en.wikipedia.org/wiki/Jamie_Scott" target="_blank" class="externalLink" rel="nofollow">Jamie Scott</a>, <a href="https://en.wikipedia.org/wiki/Rami_Yacoub" target="_blank" class="externalLink" rel="nofollow">Rami Yacoub</a> and <a href="https://en.wikipedia.org/wiki/Steve_Mac" target="_blank" class="externalLink" rel="nofollow">Steve Mac</a>.</span></span><br>
<span style="font-family: 'Arial'"><span style="font-size: 15px">___________________________________________________________________________<br>
Tracklist:<br>
01. Starlight<br>
02. Alone Together<br>
03. Wild Dreams<br>
04. Lifeline<br>
05. Alive<br>
06. Rewind<br>
07. Do You Ever Think Of Me<br>
08. My Hero<br>
09. End of Time<br>
10. Magic<br>
11. Always With Me<br>
<br>
<div class="bbCodeBlock bbCodeVfcHH HiddenContent">
<div class="attribution type">Hidden Content:</div>
<blockquote>You must either reply or click 'Like' to see the hidden information contained here.</blockquote>
</div></span></span>
<div class="messageTextEndMarker">&nbsp;</div>
</blockquote>
</article>]]></description>
                <author><![CDATA[downloadslele]]></author>
                </item>

                
                <item>
                <title><![CDATA[【Live Audios (lossy)】MP3 - Charli XCX Lollapalooza 2017]]></title>
                <link><![CDATA[https://sharemania.us/threads/charli-xcx-lollapalooza-2017.238241/]]></link>
                <description><![CDATA[<article>
<blockquote class="messageText SelectQuoteContainer ugc baseHtml">
<div class="bbCodeBlock bbCodeVfcHH HiddenContent">
<div class="attribution type">Hidden Content:</div>
<blockquote>You must reply before you can see the hidden data contained here.</blockquote>
</div>
<div class="messageTextEndMarker">&nbsp;</div>
</blockquote>
</article>]]></description>
                <author><![CDATA[brendo098]]></author>
                </item>

                
                <item>
                <title><![CDATA[【Apple Music】WEB-RiP - Mae Muller  - Busy Tone (1080p)]]></title>
                <link><![CDATA[https://sharemania.us/threads/mae-muller-busy-tone-1080p.238239/]]></link>
                <description><![CDATA[<article>
<blockquote class="messageText SelectQuoteContainer ugc baseHtml">
<img src="https://i.postimg.cc/jSHxNH1w/Mae-Muller-Busy-Tone-mp4.jpg" class="bbCodeImage LbImage" alt="[​IMG]" data-url="https://i.postimg.cc/jSHxNH1w/Mae-Muller-Busy-Tone-mp4.jpg" style=""><br>
<br>
<div class="bbCodeBlock bbCodeCode">
<div class="type">Code:</div>
<pre>General
Complete name                  : G:\Новая папка\Mae Muller  - Busy Tone.mp4
Format                         : MPEG-4
Format profile                 : Base Media
Codec ID                       : isom (isom/iso2/avc1/mp41)
File size                      : 192 MiB
Duration                       : 2 min 37 s
Overall bit rate               : 10.2 Mb/s
Frame rate                     : 25.000 FPS
Movie name                     : Busy Tone
Performer                      : Mae Muller
Genre                          : Pop
ContentType                    : Music Video
Recorded date                  : 2018-12-14 08:00:00 UTC
Writing application            : Lavf56.30.100
Copyright                      : A Capitol Records UK Video; ℗ 2018 Universal Music Operations Limited

Video
ID                             : 1
Format                         : AVC
Format/Info                    : Advanced Video Codec
Format profile                 : High@L4
Format settings                : CABAC / 4 Ref Frames
Format settings, CABAC         : Yes
Format settings, Reference fra : 4 frames
Codec ID                       : avc1
Codec ID/Info                  : Advanced Video Coding
Duration                       : 2 min 36 s
Bit rate                       : 9 995 kb/s
Width                          : 1 788 pixels
Height                         : 1 072 pixels
Display aspect ratio           : 5:3
Frame rate mode                : Constant
Frame rate                     : 25.000 FPS
Color space                    : YUV
Chroma subsampling             : 4:2:0
Bit depth                      : 8 bits
Scan type                      : Progressive
Bits/(Pixel*Frame)             : 0.209
Stream size                    : 187 MiB (98%)
Color range                    : Limited
Color primaries                : BT.709
Transfer characteristics       : BT.709
Matrix coefficients            : BT.709
Codec configuration box        : avcC

Audio
ID                             : 2
Format                         : AAC LC
Format/Info                    : Advanced Audio Codec Low Complexity
Codec ID                       : mp4a-40-2
Duration                       : 2 min 37 s
Bit rate mode                  : Constant
Bit rate                       : 249 kb/s
Channel(s)                     : 2 channels
Channel layout                 : L R
Sampling rate                  : 48.0 kHz
Frame rate                     : 46.875 FPS (1024 SPF)
Compression mode               : Lossy
Stream size                    : 4.65 MiB (2%)
Default                        : Yes
Alternate group                : 1

</pre>
</div>
<div class="bbCodeBlock bbCodeVfcHH HiddenContent">
<div class="attribution type">Hidden Content:</div>
<blockquote>You must either reply or click 'Like' to see the hidden information contained here.</blockquote>
</div>
<div class="messageTextEndMarker">&nbsp;</div>
</blockquote>
</article>]]></description>
                <author><![CDATA[vitalya3]]></author>
                </item>

                
                <item>
                <title><![CDATA[【Requests】[REQ AUD] - Cyndi Lauper Singles/Discography (MP3 320kbps-FLAC)]]></title>
                <link><![CDATA[https://sharemania.us/threads/cyndi-lauper-singles-discography-mp3-320kbps-flac.238237/]]></link>
                <description><![CDATA[<article>
<blockquote class="messageText SelectQuoteContainer ugc baseHtml">
Hello, good afternoon, I wanted to ask if anyone has singles from the 80's 90's or 00's. Thank you so much!
<div class="messageTextEndMarker">&nbsp;</div>
</blockquote>
</article>]]></description>
                <author><![CDATA[DAH97]]></author>
                </item>

                </channel></rss>